<svg viewBox="0 0 16 16" fill="#FBFCFD">
<path d="M7.99989 2.42008C8.9155 2.42008 9.66028 3.18698 9.66028 4.12979C9.66028 5.07182 8.91531 5.83871 7.99989 5.83871C7.08485 5.83871 6.33989 5.07182 6.33989 4.12979C6.33969 3.18678 7.08505 2.42008 7.99989 2.42008ZM7.99989 8.25761C10.2116 8.25761 12.0102 6.40618 12.0102 4.12979C12.0102 1.85222 10.2118 0 7.99989 0C5.78841 0 3.98963 1.85242 3.98963 4.12979C3.98963 6.40618 5.78841 8.25761 7.99989 8.25761ZM9.62227 11.6258C10.4472 11.4324 11.2345 11.0967 11.9508 10.633C12.2145 10.4622 12.4015 10.1905 12.4707 9.87766C12.5398 9.56484 12.4855 9.23656 12.3196 8.96502C12.2375 8.83043 12.1305 8.71382 12.0047 8.62185C11.8788 8.52989 11.7366 8.46437 11.5861 8.42905C11.4356 8.39373 11.2799 8.3893 11.1278 8.41601C10.9756 8.44273 10.8301 8.50006 10.6995 8.58473C9.05659 9.64831 6.94204 9.64752 5.30047 8.58473C5.16989 8.50004 5.02438 8.44269 4.87226 8.41596C4.72014 8.38924 4.5644 8.39366 4.41394 8.42899C4.26348 8.46431 4.12127 8.52983 3.99543 8.62181C3.86959 8.71379 3.7626 8.83041 3.68058 8.96502C3.51462 9.23649 3.46018 9.56472 3.52922 9.87752C3.59826 10.1903 3.78514 10.4621 4.04875 10.633C4.76501 11.0965 5.55213 11.4322 6.37693 11.6258L4.13512 13.9346C3.91482 14.1616 3.79108 14.4693 3.79113 14.7902C3.79119 15.1111 3.91503 15.4188 4.13541 15.6456C4.3558 15.8725 4.65467 15.9999 4.96629 15.9999C5.27791 15.9998 5.57674 15.8723 5.79705 15.6453L7.99951 13.3771L10.2033 15.6455C10.3123 15.7579 10.4417 15.8471 10.5841 15.9079C10.7266 15.9687 10.8793 16 11.0335 16C11.1877 16 11.3404 15.9687 11.4829 15.9079C11.6253 15.8471 11.7547 15.7579 11.8637 15.6455C11.973 15.5334 12.0597 15.4001 12.1189 15.2533C12.178 15.1065 12.2085 14.9492 12.2085 14.7903C12.2085 14.6314 12.178 14.474 12.1189 14.3273C12.0597 14.1805 11.973 14.0472 11.8637 13.935L9.62227 11.6258Z"/>
</svg>
