<svg viewBox="0 0 16 16" fill="#FBFCFD">
<path d="M14.3874 5.24477C14.3874 5.3913 14.3874 5.53784 14.3874 5.66345C14.3874 9.99678 11.0785 15 5.04712 15C3.18325 15 1.46597 14.4557 0 13.5346C0.251309 13.5556 0.52356 13.5765 0.774869 13.5765C2.30366 13.5765 3.72775 13.0531 4.85864 12.1739C3.41361 12.153 2.19895 11.19 1.80105 9.89211C2.01047 9.93398 2.19895 9.95491 2.42932 9.95491C2.72251 9.95491 3.01571 9.91304 3.28796 9.82931C1.7801 9.53623 0.649215 8.21739 0.649215 6.62641C0.649215 6.60547 0.649215 6.60547 0.649215 6.58454C1.08901 6.83575 1.59162 6.98229 2.13613 7.00322C1.25654 6.41707 0.670157 5.41224 0.670157 4.26087C0.670157 3.65378 0.837696 3.08857 1.10995 2.60709C2.72251 4.59581 5.15183 5.89372 7.87435 6.04026C7.81152 5.80998 7.79058 5.53784 7.79058 5.28663C7.79058 3.46538 9.25654 2 11.0785 2C12.0209 2 12.8796 2.39775 13.466 3.02576C14.2199 2.87923 14.911 2.60709 15.5602 2.23027C15.3089 3.00483 14.7853 3.63285 14.1152 4.05153C14.7853 3.96779 15.4136 3.80032 16 3.52818C15.5812 4.19807 15.0366 4.78422 14.3874 5.24477Z"/>
</svg>
