<svg width="16px" height="16px" viewBox="0 0 16 16" fill="#FBFCFD" >
<path fill-rule="evenodd" clip-rule="evenodd" d="M15.6329 4.6094C15.7442 4.25816 15.6329 4 15.1035 4H13.3531C12.908 4 12.703 4.22299 12.5917 4.46895C12.5917 4.46895 11.7015 6.52391 10.4404 7.85875C10.0325 8.24516 9.84705 8.36796 9.6245 8.36796C9.51322 8.36796 9.35218 8.24516 9.35218 7.89392V4.6094C9.35218 4.18782 9.22303 4 8.85207 4H6.10142C5.82336 4 5.65607 4.19563 5.65607 4.38108C5.65607 4.78075 6.28647 4.87288 6.35148 5.99693V8.43842C6.35148 8.97368 6.24946 9.07079 6.02691 9.07079C5.43352 9.07079 3.99018 7.00647 3.13398 4.64457C2.96619 4.18545 2.7979 4 2.35055 4H0.60014C0.100023 4 0 4.22299 0 4.46895C0 4.90805 0.593513 7.08605 2.76314 9.96653C4.20973 11.9335 6.24746 13 8.10189 13C9.21465 13 9.35218 12.7632 9.35218 12.3552V10.8684C9.35218 10.3947 9.45758 10.3002 9.80979 10.3002C10.0696 10.3002 10.5146 10.4232 11.5532 11.3716C12.74 12.4955 12.9355 13 13.6032 13H15.3536C15.8537 13 16.1038 12.7632 15.9595 12.2957C15.8017 11.8299 15.2351 11.1542 14.4831 10.3529C14.0752 9.89618 13.4631 9.40438 13.2779 9.15854C13.0182 8.84235 13.0923 8.70191 13.2779 8.42101C13.2779 8.42101 15.4103 5.57559 15.6329 4.60951V4.6094Z"/>
</svg>
