<svg viewBox="0 0 16 16" fill="#FBFCFD">
<path d="M12.8419 11.7035H11.92L11.9243 11.1934C11.9243 10.9668 12.1197 10.7813 12.3585 10.7813H12.4173C12.6566 10.7813 12.8526 10.9668 12.8526 11.1934L12.8419 11.7035ZM9.38376 10.6105C9.14987 10.6105 8.95853 10.7602 8.95853 10.9435V13.424C8.95853 13.6069 9.14987 13.7563 9.38376 13.7563C9.61859 13.7563 9.81011 13.6069 9.81011 13.424V10.9435C9.81011 10.76 9.61859 10.6105 9.38376 10.6105ZM15 9.22293V13.9419C15 15.0738 13.9694 16 12.7096 16H3.29059C2.0304 16 1 15.0738 1 13.9419V9.22293C1 8.09102 2.0304 7.16462 3.29059 7.16462H12.7096C13.9694 7.16462 15 8.09102 15 9.22293ZM3.91891 14.4542L3.91816 9.48338L5.08576 9.48373V8.7472L1.97328 8.74276V9.46684L2.94488 9.46951V14.4542H3.91891ZM7.41891 10.2238H6.44544V12.8782C6.44544 13.2622 6.46989 13.4542 6.44395 13.522C6.3648 13.7278 6.00901 13.9465 5.87032 13.5442C5.8468 13.4738 5.86752 13.2613 5.86715 12.8965L5.86323 10.2238H4.89517L4.89816 12.8546C4.89891 13.2578 4.88864 13.5584 4.90152 13.6953C4.92523 13.9365 4.91683 14.2178 5.15184 14.3785C5.58976 14.6789 6.4292 14.3337 6.6392 13.9042L6.63733 14.4523L7.41909 14.4532L7.41891 10.2238ZM10.5331 13.2635L10.531 11.0542C10.5303 10.2123 9.86891 9.70809 8.97123 10.3893L8.97515 8.74684L8.0028 8.74827L7.99813 14.4176L8.79781 14.4066L8.87061 14.0535C9.89224 14.9461 10.5346 14.3344 10.5331 13.2635ZM13.5797 12.9707L12.8498 12.9744C12.8494 13.002 12.8483 13.0338 12.8479 13.0684V13.4564C12.8479 13.664 12.6678 13.8331 12.449 13.8331H12.306C12.0869 13.8331 11.9067 13.664 11.9067 13.4564V12.4361H13.5782V11.837C13.5782 11.3991 13.5664 10.9614 13.5283 10.7111C13.4087 9.91929 12.2416 9.7936 11.6521 10.1989C11.4671 10.3255 11.3258 10.4949 11.2437 10.7225C11.1608 10.9502 11.1196 11.2613 11.1196 11.6565V12.9739C11.1199 15.1637 13.9129 14.8542 13.5797 12.9707ZM9.83549 5.81902C9.88571 5.93529 9.96373 6.02951 10.0696 6.10062C10.1741 6.17067 10.3078 6.20587 10.4679 6.20587C10.6083 6.20587 10.7326 6.16978 10.8409 6.09529C10.9488 6.02116 11.0397 5.9104 11.114 5.76267L11.0955 6.1264H12.1806V1.73156H11.3264V5.152C11.3264 5.33724 11.1662 5.48889 10.9704 5.48889C10.7757 5.48889 10.615 5.33724 10.615 5.152V1.73156H9.72349V4.69582C9.72349 5.07342 9.73077 5.32516 9.74253 5.4528C9.75467 5.57956 9.78528 5.70116 9.83549 5.81902ZM6.54717 3.33689C6.54717 2.91502 6.58413 2.5856 6.65749 2.34809C6.73141 2.11147 6.86413 1.92124 7.0564 1.77778C7.24811 1.6336 7.49357 1.56142 7.79205 1.56142C8.04312 1.56142 8.25816 1.60836 8.43773 1.70027C8.61824 1.79271 8.75749 1.91271 8.854 2.0608C8.95237 2.20942 9.0192 2.36213 9.05485 2.5184C9.09125 2.6768 9.10917 2.91573 9.10917 3.23804V4.34951C9.10917 4.75716 9.092 5.05707 9.05859 5.24747C9.02555 5.4384 8.95461 5.61547 8.84467 5.78151C8.7364 5.94578 8.59659 6.06862 8.42709 6.14702C8.25573 6.22613 8.05973 6.26489 7.83835 6.26489C7.59101 6.26489 7.38269 6.23236 7.21096 6.16444C7.03867 6.09689 6.90557 5.99502 6.81075 5.85973C6.71499 5.72427 6.6476 5.55929 6.60691 5.36693C6.56603 5.17476 6.54661 4.88569 6.54661 4.50044L6.54717 3.33689ZM7.39707 5.08267C7.39707 5.33156 7.59157 5.53476 7.82845 5.53476C8.06552 5.53476 8.25928 5.33156 8.25928 5.08267V2.74311C8.25928 2.49458 8.06552 2.29138 7.82845 2.29138C7.59157 2.29138 7.39707 2.49458 7.39707 2.74311V5.08267ZM4.39397 6.264H5.41765L5.41877 2.89333L6.62837 0.00586667H5.50875L4.86568 2.15058L4.21347 0H3.10541L4.39229 2.89493L4.39397 6.264Z"/>
</svg>
