<svg width="250" height="48" viewBox="0 0 250 48" fill="none" xmlns="http://www.w3.org/2000/svg">
<path d="M60 40H62.1372V42.9527H63.9904V40H66.1277V48H63.9904V44.9891H62.1372V48H60V40Z" fill="#ACB5BD"/>
<path d="M69.6903 40H74.0843L75.1006 48H73.0082L72.8438 46.2691H70.9308L70.7664 48H68.674L69.6903 40ZM71.14 44.2327H72.6346L72.4253 42.0364H71.3492L71.14 44.2327Z" fill="#ACB5BD"/>
<path d="M82.5728 40H88.6557V42.0364H86.6829V48H84.5457V42.0364H82.5728V40Z" fill="#ACB5BD"/>
<path d="M91.7343 40H96.1283L97.1446 48H95.0522L94.8878 46.2691H92.9748L92.8104 48H90.718L91.7343 40ZM93.184 44.2327H94.6786L94.4693 42.0364H93.3933L93.184 44.2327Z" fill="#ACB5BD"/>
<path d="M99.664 40H105.029V42.0364H101.801V48H99.664V40Z" fill="#ACB5BD"/>
<path d="M108.187 40H112.581L113.597 48H111.505L111.34 46.2691H109.427L109.263 48H107.17L108.187 40ZM109.636 44.2327H111.131L110.922 42.0364H109.846L109.636 44.2327Z" fill="#ACB5BD"/>
<path d="M116.116 40H118.253V42.9527H120.107V40H122.244V48H120.107V44.9891H118.253V48H116.116V40Z" fill="#ACB5BD"/>
<path d="M127.436 44.9891V48H125.298V40H127.436V42.9527H128.228L129.513 40H131.83L129.887 43.8691L131.919 48H129.603L128.228 44.9891H127.436Z" fill="#ACB5BD"/>
<path d="M134.291 40H140V41.8909H136.428V43.0545H138.207V44.9455H136.428V46.1091H140V48H134.291V40Z" fill="#ACB5BD"/>
<path d="M60 32V8H76.8057V13.1429H65.3635V17.1543H76.8057V32H60ZM65.3635 26.8571H71.4422V22.2971H65.3635V26.8571Z" fill="#FBFCFD"/>
<path d="M83.5925 8H88.956V17.84H94.8559V8H100.219V32H83.5925V26.8571H94.8559V22.9829H83.5925V8Z" fill="#FBFCFD"/>
<path d="M107.01 8H112.374V17.3257H118.453V8H123.816V32H118.453V22.4686H112.374V32H107.01V8Z" fill="#FBFCFD"/>
<path d="M135.966 22.4686V32H130.603V8H135.966V17.3257H138.434L143.118 8H148.767L142.725 19.5886L149.125 32H143.225L138.434 22.4686H135.966Z" fill="#FBFCFD"/>
<path d="M154.126 8H170.574V13.1429H159.489V17.4286H165.139V22.5714H159.489V26.8571H170.574V32H154.126V8Z" fill="#FBFCFD"/>
<path d="M176.845 8H193.651V24.8H182.209V32H176.845V8ZM182.209 13.1429V19.6571H188.287V13.1429H182.209Z" fill="#FBFCFD"/>
<path d="M199.727 19.3143H206.914V23.7714H199.727V19.3143Z" fill="#FBFCFD"/>
<path d="M212.992 8H218.176V19.8286H222.825V8H228.01V32H222.825V24.8H212.992V8Z" fill="#FBFCFD"/>
<path d="M234.982 8H250V17.36L240.954 27.0286H250V32H234.982V26.8571L244.815 16.16V12.9714H240.167V15.2H234.982V8Z" fill="#FBFCFD"/>
<path d="M6.1695 20.8589L15.0096 29.369L23.8263 26.5323L6.1695 20.8589Z" fill="#C84A48"/>
<path d="M35.9767 29.369L27.1599 26.5323L44.8012 20.8589L35.9767 29.369Z" fill="#C84A48"/>
<path d="M24.9712 28.1047L14.0827 42.9433L24.9712 37.2776V28.1047Z" fill="#C84A48"/>
<path d="M31.4592 17.5366L26.0072 24.9675V6.59071L31.4592 17.5366Z" fill="#C84A48"/>
<path d="M24.1457 27.5035L15.3133 30.3402L13.2338 42.3575L24.1457 27.5035Z" fill="#C84A48"/>
<path d="M19.5269 17.5365L24.9712 6.59831V24.9596L19.5269 17.5365Z" fill="#C84A48"/>
<path d="M26.0072 28.0972V37.2933L36.9191 42.9589L26.0072 28.0972Z" fill="#C84A48"/>
<path d="M18.6781 18.1223L24.1457 25.5609L6.48886 19.8875L18.6781 18.1223Z" fill="#C84A48"/>
<path d="M26.8403 25.5609L44.4816 19.8875L32.2924 18.13L26.8403 25.5609Z" fill="#C84A48"/>
<path d="M37.7444 42.3575L26.8403 27.5035L35.657 30.3402L37.7444 42.3575Z" fill="#C84A48"/>
<path fill-rule="evenodd" clip-rule="evenodd" d="M51 18.3382L33.3665 15.8022L25.4922 0L17.6101 15.8022L0 18.3382L12.7422 30.6253L9.72023 48L25.4766 39.7983L41.233 47.9923L38.2188 30.6331L51 18.3382ZM39.87 46.0883L25.4922 38.6189L11.1378 46.0883L13.8794 30.2553L2.2665 19.0628L18.3111 16.7503L25.4922 2.35105L32.6655 16.7503L48.7101 19.0628L37.0973 30.2708L39.87 46.0883Z" fill="#C84A48"/>
</svg>
