<svg width="190" height="152" viewBox="0 0 190 152" fill="none" xmlns="http://www.w3.org/2000/svg">
<path d="M55 144H57.1372V146.953H58.9904V144H61.1277V152H58.9904V148.989H57.1372V152H55V144Z" fill="#ACB5BD"/>
<path d="M64.6903 144H69.0843L70.1006 152H68.0082L67.8438 150.269H65.9308L65.7664 152H63.674L64.6903 144ZM66.14 148.233H67.6346L67.4253 146.036H66.3492L66.14 148.233Z" fill="#ACB5BD"/>
<path d="M77.5728 144H83.6557V146.036H81.6829V152H79.5457V146.036H77.5728V144Z" fill="#ACB5BD"/>
<path d="M86.7343 144H91.1283L92.1446 152H90.0522L89.8878 150.269H87.9748L87.8104 152H85.718L86.7343 144ZM88.184 148.233H89.6786L89.4693 146.036H88.3933L88.184 148.233Z" fill="#ACB5BD"/>
<path d="M94.664 144H100.029V146.036H96.8012V152H94.664V144Z" fill="#ACB5BD"/>
<path d="M103.187 144H107.581L108.597 152H106.505L106.34 150.269H104.427L104.263 152H102.17L103.187 144ZM104.636 148.233H106.131L105.922 146.036H104.846L104.636 148.233Z" fill="#ACB5BD"/>
<path d="M111.116 144H113.253V146.953H115.107V144H117.244V152H115.107V148.989H113.253V152H111.116V144Z" fill="#ACB5BD"/>
<path d="M122.436 148.989V152H120.298V144H122.436V146.953H123.228L124.513 144H126.83L124.887 147.869L126.919 152H124.603L123.228 148.989H122.436Z" fill="#ACB5BD"/>
<path d="M129.291 144H135V145.891H131.428V147.055H133.207V148.945H131.428V150.109H135V152H129.291V144Z" fill="#ACB5BD"/>
<path d="M0 136V112H16.8057V117.143H5.36352V121.154H16.8057V136H0ZM5.36352 130.857H11.4422V126.297H5.36352V130.857Z" fill="#FBFCFD"/>
<path d="M23.5925 112H28.956V121.84H34.8559V112H40.2194V136H23.5925V130.857H34.8559V126.983H23.5925V112Z" fill="#FBFCFD"/>
<path d="M47.0104 112H52.374V121.326H58.4526V112H63.8161V136H58.4526V126.469H52.374V136H47.0104V112Z" fill="#FBFCFD"/>
<path d="M75.9665 126.469V136H70.603V112H75.9665V121.326H78.4337L83.1178 112H88.7674L82.7245 123.589L89.125 136H83.2251L78.4337 126.469H75.9665Z" fill="#FBFCFD"/>
<path d="M94.1256 112H110.574V117.143H99.4892V121.429H105.139V126.571H99.4892V130.857H110.574V136H94.1256V112Z" fill="#FBFCFD"/>
<path d="M116.845 112H133.651V128.8H122.209V136H116.845V112ZM122.209 117.143V123.657H128.287V117.143H122.209Z" fill="#FBFCFD"/>
<path d="M139.727 123.314H146.914V127.771H139.727V123.314Z" fill="#FBFCFD"/>
<path d="M152.992 112H158.176V123.829H162.825V112H168.01V136H162.825V128.8H152.992V112Z" fill="#FBFCFD"/>
<path d="M174.982 112H190V121.36L180.954 131.029H190V136H174.982V130.857L184.815 120.16V116.971H180.167V119.2H174.982V112Z" fill="#FBFCFD"/>
<path d="M56.339 41.7179L74.0192 58.7379L91.6526 53.0646L56.339 41.7179Z" fill="#C84A48"/>
<path d="M115.953 58.7379L98.3199 53.0646L133.602 41.7179L115.953 58.7379Z" fill="#C84A48"/>
<path d="M93.9425 56.2094L72.1655 85.8866L93.9425 74.5553V56.2094Z" fill="#C84A48"/>
<path d="M106.918 35.0732L96.0144 49.9349V13.1814L106.918 35.0732Z" fill="#C84A48"/>
<path d="M92.2913 55.007L74.6267 60.6804L70.4676 84.715L92.2913 55.007Z" fill="#C84A48"/>
<path d="M83.0538 35.073L93.9423 13.1966V49.9193L83.0538 35.073Z" fill="#C84A48"/>
<path d="M96.0144 56.1943V74.5865L117.838 85.9178L96.0144 56.1943Z" fill="#C84A48"/>
<path d="M81.3561 36.2447L92.2914 51.1218L56.9777 39.7751L81.3561 36.2447Z" fill="#C84A48"/>
<path d="M97.6806 51.1218L132.963 39.7751L108.585 36.2601L97.6806 51.1218Z" fill="#C84A48"/>
<path d="M119.489 84.715L97.6806 55.007L115.314 60.6804L119.489 84.715Z" fill="#C84A48"/>
<path fill-rule="evenodd" clip-rule="evenodd" d="M146 36.6764L110.733 31.6043L94.9844 0L79.2202 31.6043L44 36.6764L69.4844 61.2507L63.4405 96L94.9533 79.5966L126.466 95.9846L120.438 61.2661L146 36.6764ZM123.74 92.1767L94.9844 77.2378L66.2755 92.1767L71.7587 60.5107L48.533 38.1256L80.6222 33.5006L94.9844 4.7021L109.331 33.5006L141.42 38.1256L118.195 60.5415L123.74 92.1767Z" fill="#C84A48"/>
</svg>
