<svg width="169" height="32" viewBox="0 0 169 32" fill="none" xmlns="http://www.w3.org/2000/svg">
<path d="M42 26V10H53.2038V13.4286H45.5757V16.1029H53.2038V26H42ZM45.5757 22.5714H49.6281V19.5314H45.5757V22.5714Z" fill="#FBFCFD"/>
<path d="M57.7283 10H61.304V16.56H65.2373V10H68.813V26H57.7283V22.5714H65.2373V19.9886H57.7283V10Z" fill="#FBFCFD"/>
<path d="M73.3403 10H76.916V16.2171H80.9684V10H84.5441V26H80.9684V19.6457H76.916V26H73.3403V10Z" fill="#FBFCFD"/>
<path d="M92.6443 19.6457V26H89.0686V10H92.6443V16.2171H94.2891L97.4119 10H101.178L97.1497 17.7257L101.417 26H97.4834L94.2891 19.6457H92.6443Z" fill="#FBFCFD"/>
<path d="M104.75 10H115.716V13.4286H108.326V16.2857H112.092V19.7143H108.326V22.5714H115.716V26H104.75V10Z" fill="#FBFCFD"/>
<path d="M119.897 10H131.101V21.2H123.472V26H119.897V10ZM123.472 13.4286V17.7714H127.525V13.4286H123.472Z" fill="#FBFCFD"/>
<path d="M135.151 17.5429H139.943V20.5143H135.151V17.5429Z" fill="#FBFCFD"/>
<path d="M143.994 10H147.451V17.8857H150.55V10H154.006V26H150.55V21.2H143.994V10Z" fill="#FBFCFD"/>
<path d="M158.655 10H168.667V16.24L162.636 22.6857H168.667V26H158.655V22.5714L165.21 15.44V13.3143H162.111V14.8H158.655V10Z" fill="#FBFCFD"/>
<path d="M4.113 13.906L10.0064 19.5793L15.8842 17.6882L4.113 13.906Z" fill="#C84A48"/>
<path d="M23.9844 19.5793L18.1066 17.6882L29.8675 13.906L23.9844 19.5793Z" fill="#C84A48"/>
<path d="M16.6475 18.7365L9.3885 28.6289L16.6475 24.8518V18.7365Z" fill="#C84A48"/>
<path d="M20.9728 11.6911L17.3381 16.645V4.39381L20.9728 11.6911Z" fill="#C84A48"/>
<path d="M16.0971 18.3357L10.2089 20.2268L8.82253 28.2383L16.0971 18.3357Z" fill="#C84A48"/>
<path d="M13.0179 11.691L16.6474 4.39888V16.6398L13.0179 11.691Z" fill="#C84A48"/>
<path d="M17.3381 18.7314V24.8622L24.6127 28.6393L17.3381 18.7314Z" fill="#C84A48"/>
<path d="M12.452 12.0816L16.0971 17.0406L4.32591 13.2584L12.452 12.0816Z" fill="#C84A48"/>
<path d="M17.8935 17.0406L29.6544 13.2584L21.5282 12.0867L17.8935 17.0406Z" fill="#C84A48"/>
<path d="M25.1629 28.2383L17.8935 18.3357L23.7714 20.2268L25.1629 28.2383Z" fill="#C84A48"/>
<path fill-rule="evenodd" clip-rule="evenodd" d="M34 12.2255L22.2443 10.5348L16.9948 0L11.7401 10.5348L0 12.2255L8.49481 20.4169L6.48015 32L16.9844 26.5322L27.4887 31.9949L25.4792 20.422L34 12.2255ZM26.58 30.7255L16.9948 25.7459L7.42518 30.7255L9.2529 20.1702L1.511 12.7085L12.2074 11.1669L16.9948 1.56737L21.777 11.1669L32.4734 12.7085L24.7315 20.1805L26.58 30.7255Z" fill="#C84A48"/>
</svg>
