<svg width="190" height="24" viewBox="0 0 190 24" fill="none" xmlns="http://www.w3.org/2000/svg">
<path d="M0 24V0H16.8057V5.14286H5.36352V9.15429H16.8057V24H0ZM5.36352 18.8571H11.4422V14.2971H5.36352V18.8571Z" fill="#ACB5BD"/>
<path d="M23.5925 0H28.956V9.84H34.8559V0H40.2194V24H23.5925V18.8571H34.8559V14.9829H23.5925V0Z" fill="#ACB5BD"/>
<path d="M47.0104 0H52.374V9.32571H58.4526V0H63.8161V24H58.4526V14.4686H52.374V24H47.0104V0Z" fill="#ACB5BD"/>
<path d="M75.9665 14.4686V24H70.603V0H75.9665V9.32571H78.4337L83.1178 0H88.7674L82.7245 11.5886L89.125 24H83.2251L78.4337 14.4686H75.9665Z" fill="#ACB5BD"/>
<path d="M94.1256 0H110.574V5.14286H99.4892V9.42857H105.139V14.5714H99.4892V18.8571H110.574V24H94.1256V0Z" fill="#ACB5BD"/>
<path d="M116.845 0H133.651V16.8H122.209V24H116.845V0ZM122.209 5.14286V11.6571H128.287V5.14286H122.209Z" fill="#ACB5BD"/>
<path d="M139.727 11.3143H146.914V15.7714H139.727V11.3143Z" fill="#ACB5BD"/>
<path d="M152.992 0H158.176V11.8286H162.825V0H168.01V24H162.825V16.8H152.992V0Z" fill="#ACB5BD"/>
<path d="M174.982 0H190V9.36L180.954 19.0286H190V24H174.982V18.8571L184.815 8.16V4.97143H180.167V7.2H174.982V0Z" fill="#ACB5BD"/>
</svg>
