<svg width="160" height="16" viewBox="0 0 160 16" fill="none" xmlns="http://www.w3.org/2000/svg">
<path d="M0 0H4.27441V5.90545H7.9809V0H12.2553V16H7.9809V9.97818H4.27441V16H0V0Z" fill="#ACB5BD"/>
<path d="M19.3806 0H28.1685L30.2011 16H26.0164L25.6876 12.5382H21.8615L21.5327 16H17.348L19.3806 0ZM22.28 8.46545H25.2691L24.8506 4.07273H22.6985L22.28 8.46545Z" fill="#ACB5BD"/>
<path d="M45.1457 0H57.3113V4.07273H53.3657V16H49.0913V4.07273H45.1457V0Z" fill="#ACB5BD"/>
<path d="M63.4686 0H72.2566L74.2892 16H70.1044L69.7756 12.5382H65.9496L65.6208 16H61.4361L63.4686 0ZM66.3681 8.46545H69.3572L68.9387 4.07273H66.7865L66.3681 8.46545Z" fill="#ACB5BD"/>
<path d="M79.3279 0H90.0588V4.07273H83.6023V16H79.3279V0Z" fill="#ACB5BD"/>
<path d="M96.3733 0H105.161L107.194 16H103.009L102.68 12.5382H98.8542L98.5254 16H94.3407L96.3733 0ZM99.2727 8.46545H102.262L101.843 4.07273H99.6912L99.2727 8.46545Z" fill="#ACB5BD"/>
<path d="M112.233 0H116.507V5.90545H120.213V0H124.488V16H120.213V9.97818H116.507V16H112.233V0Z" fill="#ACB5BD"/>
<path d="M134.871 9.97818V16H130.597V0H134.871V5.90545H136.455L139.026 0H143.659L139.773 7.73818L143.839 16H139.205L136.455 9.97818H134.871Z" fill="#ACB5BD"/>
<path d="M148.582 0H160V3.78182H152.856V6.10909H156.413V9.89091H152.856V12.2182H160V16H148.582V0Z" fill="#ACB5BD"/>
</svg>
